# Blender 4.0.1
# www.blender.org
mtllib CupboardUnitBase.mtl
o Cube.001
v -0.250000 -0.200000 0.075000
v -0.225000 -0.180000 0.059552
v -0.250000 0.200000 0.075000
v -0.225000 0.180000 0.059552
v -0.250000 -0.200000 -0.075000
v -0.250000 0.200000 -0.075000
v 0.250000 -0.200000 0.075000
v 0.225000 -0.180000 0.059552
v 0.250000 0.200000 0.075000
v 0.225000 0.180000 0.059552
v 0.250000 -0.200000 -0.075000
v 0.250000 0.200000 -0.075000
v -0.225000 -0.180000 -0.075000
v -0.225000 0.180000 -0.075000
v 0.225000 -0.180000 -0.075000
v 0.225000 0.180000 -0.075000
vn -1.0000 -0.0000 -0.0000
vn -0.0000 -0.0000 -1.0000
vn 1.0000 -0.0000 -0.0000
vn -0.0000 -0.0000 1.0000
vn -0.0000 -1.0000 -0.0000
vn -0.0000 1.0000 -0.0000
vt 0.375000 0.000000
vt 0.625000 0.000000
vt 0.625000 0.250000
vt 0.375000 0.250000
vt 0.625000 0.500000
vt 0.375000 0.500000
vt 0.387500 0.487500
vt 0.612500 0.487500
vt 0.612500 0.262500
vt 0.387500 0.262500
vt 0.625000 0.750000
vt 0.375000 0.750000
vt 0.625000 1.000000
vt 0.375000 1.000000
vt 0.125000 0.500000
vt 0.125000 0.750000
vt 0.875000 0.500000
vt 0.875000 0.750000
vt 0.625000 0.249170
vt 0.375000 0.249170
vt 0.375000 0.500830
vt 0.625000 0.500830
vt 0.125000 0.500830
vt 0.875000 0.500830
s 0
f 1/1/1 3/2/1 6/3/1 5/4/1
f 12/5/2 11/6/2 15/7/2 16/8/2
f 11/6/2 5/4/2 6/3/2 12/5/2 16/8/2 14/9/2 13/10/2 15/7/2
f 11/6/3 12/5/3 9/11/3 7/12/3
f 7/12/4 9/11/4 3/13/4 1/14/4
f 5/15/5 11/6/5 7/12/5 1/16/5
f 12/5/6 6/17/6 3/18/6 9/11/6
f 14/19/3 4/2/3 2/1/3 13/20/3
f 15/21/1 8/12/1 10/11/1 16/22/1
f 8/12/2 2/14/2 4/13/2 10/11/2
f 13/23/6 2/16/6 8/12/6 15/21/6
f 10/11/5 4/18/5 14/24/5 16/22/5
o Cube.002
v -0.010562 -0.198694 0.073934
v -0.010562 0.196277 0.073934
v -0.010562 -0.198694 -0.074468
v -0.010562 0.196277 -0.074468
v 0.015062 -0.198694 0.073934
v 0.015062 0.196277 0.073934
v 0.015062 -0.198694 -0.074468
v 0.015062 0.196277 -0.074468
vn -1.0000 -0.0000 -0.0000
vn -0.0000 -0.0000 -1.0000
vn 1.0000 -0.0000 -0.0000
vn -0.0000 -0.0000 1.0000
vn -0.0000 -1.0000 -0.0000
vn -0.0000 1.0000 -0.0000
vt 0.375000 0.000000
vt 0.625000 0.000000
vt 0.625000 0.250000
vt 0.375000 0.250000
vt 0.625000 0.500000
vt 0.375000 0.500000
vt 0.625000 0.750000
vt 0.375000 0.750000
vt 0.625000 1.000000
vt 0.375000 1.000000
vt 0.125000 0.500000
vt 0.125000 0.750000
vt 0.875000 0.500000
vt 0.875000 0.750000
s 0
f 17/25/7 18/26/7 20/27/7 19/28/7
f 19/28/8 20/27/8 24/29/8 23/30/8
f 23/30/9 24/29/9 22/31/9 21/32/9
f 21/32/10 22/31/10 18/33/10 17/34/10
f 19/35/11 23/30/11 21/32/11 17/36/11
f 24/29/12 20/37/12 18/38/12 22/31/12
o Cube.003
v 0.010950 -0.078928 0.073611
v 0.010950 -0.066044 0.073611
v 0.010950 -0.078928 -0.073894
v 0.010950 -0.066044 -0.073894
v 0.232028 -0.078928 0.073611
v 0.232028 -0.066044 0.073611
v 0.232028 -0.078928 -0.073894
v 0.232028 -0.066044 -0.073894
vn -1.0000 -0.0000 -0.0000
vn -0.0000 -0.0000 -1.0000
vn 1.0000 -0.0000 -0.0000
vn -0.0000 -0.0000 1.0000
vn -0.0000 -1.0000 -0.0000
vn -0.0000 1.0000 -0.0000
vt 0.375000 0.000000
vt 0.625000 0.000000
vt 0.625000 0.250000
vt 0.375000 0.250000
vt 0.625000 0.500000
vt 0.375000 0.500000
vt 0.625000 0.750000
vt 0.375000 0.750000
vt 0.625000 1.000000
vt 0.375000 1.000000
vt 0.125000 0.500000
vt 0.125000 0.750000
vt 0.875000 0.500000
vt 0.875000 0.750000
s 0
f 25/39/13 26/40/13 28/41/13 27/42/13
f 27/42/14 28/41/14 32/43/14 31/44/14
f 31/44/15 32/43/15 30/45/15 29/46/15
f 29/46/16 30/45/16 26/47/16 25/48/16
f 27/49/17 31/44/17 29/46/17 25/50/17
f 32/43/18 28/51/18 26/52/18 30/45/18
