# Blender 3.5.0
# www.blender.org
mtllib PhysicalHandsObjectCylTubeCap.mtl
o CylinderTubeCap
v 0.000000 -0.037922 -0.075000
v 0.000000 0.037922 -0.075000
v 0.014632 0.037922 -0.073559
v 0.014632 -0.037922 -0.073559
v 0.028701 0.037922 -0.069291
v 0.028701 -0.037922 -0.069291
v 0.041668 0.037922 -0.062360
v 0.041668 -0.037922 -0.062360
v 0.053033 0.037922 -0.053033
v 0.053033 -0.037922 -0.053033
v 0.062360 0.037922 -0.041668
v 0.062360 -0.037922 -0.041668
v 0.069291 0.037922 -0.028701
v 0.069291 -0.037922 -0.028701
v 0.073559 0.037922 -0.014632
v 0.073559 -0.037922 -0.014632
v 0.075000 0.037922 -0.000000
v 0.075000 -0.037922 -0.000000
v 0.073559 0.037922 0.014632
v 0.073559 -0.037922 0.014632
v 0.069291 0.037922 0.028701
v 0.069291 -0.037922 0.028701
v 0.062360 0.037922 0.041668
v 0.062360 -0.037922 0.041668
v 0.053033 0.037922 0.053033
v 0.053033 -0.037922 0.053033
v 0.041668 0.037922 0.062360
v 0.041668 -0.037922 0.062360
v 0.028701 0.037922 0.069291
v 0.028701 -0.037922 0.069291
v 0.014632 0.037922 0.073559
v 0.014632 -0.037922 0.073559
v 0.000000 0.037922 0.075000
v 0.000000 -0.037922 0.075000
v -0.014632 0.037922 0.073559
v -0.014632 -0.037922 0.073559
v -0.028701 0.037922 0.069291
v -0.028701 -0.037922 0.069291
v -0.041668 0.037922 0.062360
v -0.041668 -0.037922 0.062360
v -0.053033 0.037922 0.053033
v -0.053033 -0.037922 0.053033
v -0.062360 0.037922 0.041668
v -0.062360 -0.037922 0.041668
v -0.069291 0.037922 0.028701
v -0.069291 -0.037922 0.028701
v -0.073559 0.037922 0.014632
v -0.073559 -0.037922 0.014632
v -0.075000 0.037922 -0.000000
v -0.075000 -0.037922 -0.000000
v -0.073559 0.037922 -0.014632
v -0.073559 -0.037922 -0.014632
v -0.069291 0.037922 -0.028701
v -0.069291 -0.037922 -0.028701
v -0.062360 0.037922 -0.041668
v -0.062360 -0.037922 -0.041668
v -0.053033 0.037922 -0.053033
v -0.053033 -0.037922 -0.053033
v -0.041668 0.037922 -0.062360
v -0.041668 -0.037922 -0.062360
v -0.028701 0.037922 -0.069291
v -0.028701 -0.037922 -0.069291
v 0.062483 0.037922 0.025881
v 0.025881 0.037922 -0.062483
v 0.037574 0.037922 -0.056233
v 0.047822 0.037922 -0.047822
v 0.056233 0.037922 -0.037574
v 0.062483 0.037922 -0.025881
v 0.066331 0.037922 -0.013194
v 0.067631 0.037922 -0.000000
v 0.066331 0.037922 0.013194
v -0.014632 0.037922 -0.073559
v 0.056233 0.037922 0.037574
v 0.047822 0.037922 0.047822
v 0.037574 0.037922 0.056233
v 0.025881 0.037922 0.062483
v 0.013194 0.037922 0.066331
v 0.000000 0.037922 0.067631
v -0.013194 0.037922 0.066331
v -0.025881 0.037922 0.062483
v -0.037574 0.037922 0.056233
v -0.047822 0.037922 0.047822
v -0.056233 0.037922 0.037574
v -0.062483 0.037922 0.025881
v -0.066331 0.037922 0.013194
v -0.067631 0.037922 -0.000000
v -0.066331 0.037922 -0.013194
v -0.062483 0.037922 -0.025881
v -0.056233 0.037922 -0.037574
v -0.047822 0.037922 -0.047822
v -0.037574 0.037922 -0.056233
v -0.025881 0.037922 -0.062483
v -0.013194 0.037922 -0.066332
v 0.000000 0.037922 -0.067631
v 0.013194 0.037922 -0.066332
v -0.014632 -0.037922 -0.073559
v -0.037574 -0.037922 0.056233
v -0.025881 -0.037922 0.062483
v -0.013194 -0.037922 0.066331
v 0.000000 -0.037922 0.067631
v 0.013194 -0.037922 0.066331
v 0.025881 -0.037922 0.062483
v 0.037574 -0.037922 0.056233
v 0.047822 -0.037922 0.047822
v 0.056233 -0.037922 0.037574
v 0.062483 -0.037922 0.025881
v 0.066331 -0.037922 0.013194
v 0.067631 -0.037922 -0.000000
v 0.066331 -0.037922 -0.013194
v 0.062483 -0.037922 -0.025881
v 0.056233 -0.037922 -0.037574
v 0.047822 -0.037922 -0.047822
v 0.037574 -0.037922 -0.056233
v 0.025881 -0.037922 -0.062483
v 0.013194 -0.037922 -0.066332
v 0.000000 -0.037922 -0.067631
v -0.013194 -0.037922 -0.066332
v -0.025881 -0.037922 -0.062483
v -0.037574 -0.037922 -0.056233
v -0.047822 -0.037922 -0.047822
v -0.056233 -0.037922 -0.037574
v -0.062483 -0.037922 -0.025881
v -0.066331 -0.037922 -0.013194
v -0.067631 -0.037922 -0.000000
v -0.066331 -0.037922 0.013194
v -0.062483 -0.037922 0.025881
v -0.056233 -0.037922 0.037574
v -0.047822 -0.037922 0.047822
vn 0.0980 -0.0000 -0.9952
vn 0.2903 -0.0000 -0.9569
vn 0.4714 -0.0000 -0.8819
vn 0.6344 -0.0000 -0.7730
vn 0.7730 -0.0000 -0.6344
vn 0.8819 -0.0000 -0.4714
vn 0.9569 -0.0000 -0.2903
vn 0.9952 -0.0000 -0.0980
vn 0.9952 -0.0000 0.0980
vn 0.9569 -0.0000 0.2903
vn 0.8819 -0.0000 0.4714
vn 0.7730 -0.0000 0.6344
vn 0.6344 -0.0000 0.7730
vn 0.4714 -0.0000 0.8819
vn 0.2903 -0.0000 0.9569
vn 0.0980 -0.0000 0.9952
vn -0.0980 -0.0000 0.9952
vn -0.2903 -0.0000 0.9569
vn -0.4714 -0.0000 0.8819
vn -0.6344 -0.0000 0.7730
vn -0.7730 -0.0000 0.6344
vn -0.8819 -0.0000 0.4714
vn -0.9569 -0.0000 0.2903
vn -0.9952 -0.0000 0.0980
vn -0.9952 -0.0000 -0.0980
vn -0.9569 -0.0000 -0.2903
vn -0.8819 -0.0000 -0.4714
vn -0.7730 -0.0000 -0.6344
vn -0.6344 -0.0000 -0.7730
vn -0.4714 -0.0000 -0.8819
vn -0.0000 1.0000 -0.0000
vn -0.2903 -0.0000 -0.9569
vn -0.0980 -0.0000 -0.9952
vn -0.0000 -1.0000 -0.0000
vt 1.000000 0.500000
vt 0.000000 0.500000
vt 0.750000 0.490000
vt 1.000000 1.000000
vt 0.250000 0.490000
vt 0.000000 1.000000
vt 0.968750 1.000000
vt 0.296822 0.485388
vt 0.968750 0.500000
vt 0.796822 0.485388
vt 0.937500 1.000000
vt 0.341844 0.471731
vt 0.937500 0.500000
vt 0.841844 0.471731
vt 0.906250 1.000000
vt 0.383337 0.449553
vt 0.906250 0.500000
vt 0.883337 0.449553
vt 0.875000 1.000000
vt 0.419706 0.419706
vt 0.875000 0.500000
vt 0.919706 0.419706
vt 0.843750 1.000000
vt 0.449553 0.383337
vt 0.843750 0.500000
vt 0.949553 0.383337
vt 0.812500 1.000000
vt 0.471731 0.341844
vt 0.812500 0.500000
vt 0.971731 0.341844
vt 0.781250 1.000000
vt 0.485388 0.296822
vt 0.781250 0.500000
vt 0.985388 0.296822
vt 0.750000 1.000000
vt 0.490000 0.250000
vt 0.750000 0.500000
vt 0.990000 0.250000
vt 0.718750 1.000000
vt 0.485388 0.203178
vt 0.718750 0.500000
vt 0.985388 0.203178
vt 0.687500 1.000000
vt 0.471731 0.158156
vt 0.687500 0.500000
vt 0.971731 0.158156
vt 0.656250 1.000000
vt 0.449553 0.116663
vt 0.656250 0.500000
vt 0.949553 0.116663
vt 0.625000 1.000000
vt 0.419706 0.080294
vt 0.625000 0.500000
vt 0.919706 0.080294
vt 0.593750 1.000000
vt 0.383337 0.050447
vt 0.593750 0.500000
vt 0.883337 0.050447
vt 0.562500 1.000000
vt 0.341844 0.028269
vt 0.562500 0.500000
vt 0.841844 0.028269
vt 0.531250 1.000000
vt 0.296822 0.014612
vt 0.531250 0.500000
vt 0.796822 0.014612
vt 0.500000 1.000000
vt 0.250000 0.010000
vt 0.500000 0.500000
vt 0.750000 0.010000
vt 0.468750 1.000000
vt 0.203178 0.014612
vt 0.468750 0.500000
vt 0.703178 0.014612
vt 0.437500 1.000000
vt 0.158156 0.028269
vt 0.437500 0.500000
vt 0.658156 0.028269
vt 0.406250 1.000000
vt 0.116663 0.050447
vt 0.406250 0.500000
vt 0.616663 0.050447
vt 0.375000 1.000000
vt 0.080294 0.080294
vt 0.375000 0.500000
vt 0.580294 0.080294
vt 0.343750 1.000000
vt 0.050447 0.116663
vt 0.343750 0.500000
vt 0.550447 0.116663
vt 0.312500 1.000000
vt 0.028269 0.158156
vt 0.312500 0.500000
vt 0.528269 0.158156
vt 0.281250 1.000000
vt 0.014612 0.203178
vt 0.281250 0.500000
vt 0.514612 0.203178
vt 0.250000 1.000000
vt 0.010000 0.250000
vt 0.250000 0.500000
vt 0.510000 0.250000
vt 0.218750 1.000000
vt 0.014612 0.296822
vt 0.218750 0.500000
vt 0.514612 0.296822
vt 0.187500 1.000000
vt 0.028269 0.341844
vt 0.187500 0.500000
vt 0.528269 0.341844
vt 0.156250 1.000000
vt 0.050447 0.383337
vt 0.156250 0.500000
vt 0.550447 0.383337
vt 0.125000 1.000000
vt 0.080294 0.419706
vt 0.125000 0.500000
vt 0.580294 0.419706
vt 0.093750 1.000000
vt 0.116663 0.449553
vt 0.093750 0.500000
vt 0.616663 0.449553
vt 0.158156 0.471731
vt 0.062500 1.000000
vt 0.062500 0.500000
vt 0.658156 0.471731
vt 0.449945 0.167180
vt 0.687500 0.949897
vt 0.332820 0.449945
vt 0.937500 0.949897
vt 0.370236 0.429946
vt 0.906250 0.949897
vt 0.403031 0.403031
vt 0.875000 0.949897
vt 0.429946 0.370236
vt 0.843750 0.949897
vt 0.449945 0.332820
vt 0.812500 0.949897
vt 0.462260 0.292221
vt 0.781250 0.949897
vt 0.466419 0.250000
vt 0.750000 0.949897
vt 0.462260 0.207779
vt 0.718750 0.949897
vt 0.203178 0.485388
vt 0.031250 1.000000
vt 0.429946 0.129764
vt 0.656250 0.949897
vt 0.403031 0.096969
vt 0.625000 0.949897
vt 0.370236 0.070054
vt 0.593750 0.949897
vt 0.332820 0.050055
vt 0.562500 0.949897
vt 0.292221 0.037740
vt 0.531250 0.949897
vt 0.250000 0.033581
vt 0.500000 0.949897
vt 0.207779 0.037740
vt 0.468750 0.949897
vt 0.167180 0.050055
vt 0.437500 0.949897
vt 0.129764 0.070054
vt 0.406250 0.949897
vt 0.096969 0.096969
vt 0.375000 0.949897
vt 0.070054 0.129764
vt 0.343750 0.949897
vt 0.050055 0.167180
vt 0.312500 0.949897
vt 0.037740 0.207779
vt 0.281250 0.949897
vt 0.033581 0.250000
vt 0.250000 0.949897
vt 0.037740 0.292221
vt 0.218750 0.949897
vt 0.050055 0.332820
vt 0.187500 0.949897
vt 0.070054 0.370236
vt 0.156250 0.949897
vt 0.096969 0.403031
vt 0.125000 0.949897
vt 0.129764 0.429946
vt 0.093750 0.949897
vt 0.167180 0.449945
vt 0.062500 0.949897
vt 0.207779 0.462260
vt 0.031250 0.949897
vt 0.250000 0.466419
vt 1.000000 0.949897
vt 0.000000 0.949897
vt 0.292221 0.462260
vt 0.968750 0.949897
vt 0.031250 0.500000
vt 0.703178 0.485388
vt 0.629764 0.070054
vt 0.406250 0.916564
vt 0.667180 0.050055
vt 0.437500 0.916564
vt 0.707779 0.037740
vt 0.468750 0.916564
vt 0.750000 0.033581
vt 0.500000 0.916564
vt 0.792221 0.037740
vt 0.531250 0.916564
vt 0.832820 0.050055
vt 0.562500 0.916564
vt 0.870236 0.070054
vt 0.593750 0.916564
vt 0.903031 0.096969
vt 0.625000 0.916564
vt 0.929946 0.129764
vt 0.656250 0.916564
vt 0.949945 0.167180
vt 0.687500 0.916564
vt 0.962260 0.207779
vt 0.718750 0.916564
vt 0.966419 0.250000
vt 0.750000 0.916564
vt 0.962260 0.292221
vt 0.781250 0.916564
vt 0.949945 0.332820
vt 0.812500 0.916564
vt 0.929946 0.370236
vt 0.843750 0.916564
vt 0.903031 0.403031
vt 0.875000 0.916564
vt 0.870236 0.429946
vt 0.906250 0.916564
vt 0.832820 0.449945
vt 0.937500 0.916564
vt 0.792221 0.462260
vt 0.968750 0.916564
vt 0.750000 0.466419
vt 1.000000 0.916564
vt 0.000000 0.916564
vt 0.707779 0.462260
vt 0.031250 0.916564
vt 0.667180 0.449945
vt 0.062500 0.916564
vt 0.629764 0.429946
vt 0.093750 0.916564
vt 0.596969 0.403031
vt 0.125000 0.916564
vt 0.570054 0.370236
vt 0.156250 0.916564
vt 0.550055 0.332820
vt 0.187500 0.916564
vt 0.537740 0.292221
vt 0.218750 0.916564
vt 0.533581 0.250000
vt 0.250000 0.916564
vt 0.537740 0.207779
vt 0.281250 0.916564
vt 0.550055 0.167180
vt 0.312500 0.916564
vt 0.570054 0.129764
vt 0.343750 0.916564
vt 0.596969 0.096969
vt 0.375000 0.916564
s 1
usemtl Default_OBJ
f 1/1/1 2/4/1 3/7/1 4/9/1
f 4/9/2 3/7/2 5/11/2 6/13/2
f 6/13/3 5/11/3 7/15/3 8/17/3
f 8/17/4 7/15/4 9/19/4 10/21/4
f 10/21/5 9/19/5 11/23/5 12/25/5
f 12/25/6 11/23/6 13/27/6 14/29/6
f 14/29/7 13/27/7 15/31/7 16/33/7
f 16/33/8 15/31/8 17/35/8 18/37/8
f 18/37/9 17/35/9 19/39/9 20/41/9
f 20/41/10 19/39/10 21/43/10 22/45/10
f 22/45/11 21/43/11 23/47/11 24/49/11
f 24/49/12 23/47/12 25/51/12 26/53/12
f 26/53/13 25/51/13 27/55/13 28/57/13
f 28/57/14 27/55/14 29/59/14 30/61/14
f 30/61/15 29/59/15 31/63/15 32/65/15
f 32/65/16 31/63/16 33/67/16 34/69/16
f 34/69/17 33/67/17 35/71/17 36/73/17
f 36/73/18 35/71/18 37/75/18 38/77/18
f 38/77/19 37/75/19 39/79/19 40/81/19
f 40/81/20 39/79/20 41/83/20 42/85/20
f 42/85/21 41/83/21 43/87/21 44/89/21
f 44/89/22 43/87/22 45/91/22 46/93/22
f 46/93/23 45/91/23 47/95/23 48/97/23
f 48/97/24 47/95/24 49/99/24 50/101/24
f 50/101/25 49/99/25 51/103/25 52/105/25
f 52/105/26 51/103/26 53/107/26 54/109/26
f 54/109/27 53/107/27 55/111/27 56/113/27
f 56/113/28 55/111/28 57/115/28 58/117/28
f 58/117/29 57/115/29 59/119/29 60/121/29
f 60/121/30 59/119/30 61/124/30 62/125/30
f 63/127/31 21/44/31 19/40/31 17/36/31 15/32/31 13/28/31 11/24/31 9/20/31 7/16/31 5/12/31 64/129/31 65/131/31 66/133/31 67/135/31 68/137/31 69/139/31 70/141/31 71/143/31
f 64/129/31 5/12/31 3/8/31 2/5/31 72/145/31 61/123/31 59/120/31 57/116/31 55/112/31 53/108/31 51/104/31 49/100/31 47/96/31 45/92/31 43/88/31 41/84/31 39/80/31 37/76/31 35/72/31 33/68/31 31/64/31 29/60/31 27/56/31 25/52/31 23/48/31 21/44/31 63/127/31 73/147/31 74/149/31 75/151/31 76/153/31 77/155/31 78/157/31 79/159/31 80/161/31 81/163/31 82/165/31 83/167/31 84/169/31 85/171/31 86/173/31 87/175/31 88/177/31 89/179/31 90/181/31 91/183/31 92/185/31 93/187/31 94/189/31 95/192/31
f 62/125/32 61/124/32 72/146/32 96/194/32
f 96/194/33 72/146/33 2/6/33 1/2/33
f 8/18/34 10/22/34 12/26/34 14/30/34 16/34/34 18/38/34 20/42/34 22/46/34 24/50/34 26/54/34 28/58/34 30/62/34 32/66/34 34/70/34 36/74/34 38/78/34 40/82/34 97/196/34 98/198/34 99/200/34 100/202/34 101/204/34 102/206/34 103/208/34 104/210/34 105/212/34 106/214/34 107/216/34 108/218/34 109/220/34 110/222/34 111/224/34 112/226/34 113/228/34
f 97/196/34 40/82/34 42/86/34 44/90/34 46/94/34 48/98/34 50/102/34 52/106/34 54/110/34 56/114/34 58/118/34 60/122/34 62/126/34 96/195/34 1/3/34 4/10/34 6/14/34 8/18/34 113/228/34 114/230/34 115/232/34 116/234/34 117/237/34 118/239/34 119/241/34 120/243/34 121/245/34 122/247/34 123/249/34 124/251/34 125/253/34 126/255/34 127/257/34 128/259/34
f 115/233/17 95/193/17 94/190/17 116/235/17
f 114/231/18 64/130/18 95/193/18 115/233/18
f 113/229/19 65/132/19 64/130/19 114/231/19
f 112/227/20 66/134/20 65/132/20 113/229/20
f 67/136/21 66/134/21 112/227/21 111/225/21
f 68/138/22 67/136/22 111/225/22 110/223/22
f 69/140/23 68/138/23 110/223/23 109/221/23
f 70/142/24 69/140/24 109/221/24 108/219/24
f 71/144/25 70/142/25 108/219/25 107/217/25
f 63/128/26 71/144/26 107/217/26 106/215/26
f 73/148/27 63/128/27 106/215/27 105/213/27
f 74/150/28 73/148/28 105/213/28 104/211/28
f 75/152/29 74/150/29 104/211/29 103/209/29
f 76/154/30 75/152/30 103/209/30 102/207/30
f 77/156/32 76/154/32 102/207/32 101/205/32
f 78/158/33 77/156/33 101/205/33 100/203/33
f 79/160/1 78/158/1 100/203/1 99/201/1
f 80/162/2 79/160/2 99/201/2 98/199/2
f 81/164/3 80/162/3 98/199/3 97/197/3
f 82/166/4 81/164/4 97/197/4 128/260/4
f 127/258/5 83/168/5 82/166/5 128/260/5
f 126/256/6 84/170/6 83/168/6 127/258/6
f 125/254/7 85/172/7 84/170/7 126/256/7
f 124/252/8 86/174/8 85/172/8 125/254/8
f 123/250/9 87/176/9 86/174/9 124/252/9
f 122/248/10 88/178/10 87/176/10 123/250/10
f 121/246/11 89/180/11 88/178/11 122/248/11
f 120/244/12 90/182/12 89/180/12 121/246/12
f 119/242/13 91/184/13 90/182/13 120/244/13
f 118/240/14 92/186/14 91/184/14 119/242/14
f 117/238/15 93/188/15 92/186/15 118/240/15
f 116/236/16 94/191/16 93/188/16 117/238/16
