# Blender 4.0.1
# www.blender.org
mtllib PhysicalHandsObjectTube.mtl
o Tube
v 0.000000 -1.000000 -0.200000
v 0.000000 1.000000 -0.200000
v 0.173205 -1.000000 -0.100000
v 0.173205 1.000000 -0.100000
v 0.173205 -1.000000 0.100000
v 0.173205 1.000000 0.100000
v 0.000000 -1.000000 0.200000
v 0.000000 1.000000 0.200000
v -0.173205 -1.000000 0.100000
v -0.173205 1.000000 0.100000
v -0.173205 -1.000000 -0.100000
v -0.173205 1.000000 -0.100000
v 0.155885 1.000000 -0.090000
v -0.155885 1.000000 -0.090000
v 0.000000 1.000000 0.180000
v -0.155885 1.000000 0.090000
v 0.000000 1.000000 -0.180000
v 0.155885 1.000000 0.090000
v 0.000000 -1.000000 -0.180000
v 0.155885 -1.000000 0.090000
v -0.155885 -1.000000 0.090000
v -0.155885 -1.000000 -0.090000
v 0.000000 -1.000000 0.180000
v 0.155885 -1.000000 -0.090000
vn 0.5000 -0.0000 -0.8660
vn 1.0000 -0.0000 -0.0000
vn 0.5000 -0.0000 0.8660
vn -0.5000 -0.0000 0.8660
vn -0.0000 1.0000 -0.0000
vn -1.0000 -0.0000 -0.0000
vn -0.5000 -0.0000 -0.8660
vn -0.0000 -1.0000 -0.0000
vt 1.000000 0.500000
vt 1.000000 1.000000
vt 0.833333 1.000000
vt 0.833333 0.500000
vt 0.666667 1.000000
vt 0.666667 0.500000
vt 0.500000 1.000000
vt 0.500000 0.500000
vt 0.333333 1.000000
vt 0.333333 0.500000
vt 0.062939 0.142000
vt 0.042154 0.130000
vt 0.250000 0.010000
vt 0.457846 0.130000
vt 0.437061 0.142000
vt 0.250000 0.034000
vt 0.457846 0.370000
vt 0.250000 0.490000
vt 0.042154 0.370000
vt 0.062939 0.358000
vt 0.250000 0.466000
vt 0.437061 0.358000
vt 0.166667 1.000000
vt 0.166667 0.500000
vt -0.000000 1.000000
vt -0.000000 0.500000
vt 0.542154 0.370000
vt 0.750000 0.490000
vt 0.957846 0.370000
vt 0.937061 0.358000
vt 0.750000 0.466000
vt 0.562939 0.358000
vt 0.957846 0.130000
vt 0.750000 0.010000
vt 0.542154 0.130000
vt 0.562939 0.142000
vt 0.750000 0.034000
vt 0.937061 0.142000
vt 0.833333 0.522727
vt 0.833333 0.977273
vt 1.000000 0.977273
vt 1.000000 0.522727
vt 0.666667 0.977273
vt 0.666667 0.522727
vt 0.500000 0.977273
vt 0.500000 0.522727
vt 0.333333 0.977273
vt 0.333333 0.522727
vt 0.166667 0.522727
vt 0.166667 0.977273
vt -0.000000 0.522727
vt -0.000000 0.977273
s 0
f 1/1/1 2/2/1 4/3/1 3/4/1
f 3/4/2 4/3/2 6/5/2 5/6/2
f 5/6/3 6/5/3 8/7/3 7/8/3
f 7/8/4 8/7/4 10/9/4 9/10/4
f 16/11/5 10/12/5 8/13/5 6/14/5 18/15/5 15/16/5
f 18/15/5 6/14/5 4/17/5 2/18/5 12/19/5 10/12/5 16/11/5 14/20/5 17/21/5 13/22/5
f 9/10/6 10/9/6 12/23/6 11/24/6
f 11/24/7 12/23/7 2/25/7 1/26/7
f 11/27/8 1/28/8 3/29/8 24/30/8 19/31/8 22/32/8
f 3/29/8 5/33/8 7/34/8 9/35/8 11/27/8 22/32/8 21/36/8 23/37/8 20/38/8 24/30/8
f 24/39/4 13/40/4 17/41/4 19/42/4
f 18/43/6 13/40/6 24/39/6 20/44/6
f 15/45/7 18/43/7 20/44/7 23/46/7
f 16/47/1 15/45/1 23/46/1 21/48/1
f 22/49/2 14/50/2 16/47/2 21/48/2
f 19/51/3 17/52/3 14/50/3 22/49/3
